<?xml version="1.0" standalone="no"?>
<!DOCTYPE svg PUBLIC "-//W3C//DTD SVG 20010904//EN"
 "http://www.w3.org/TR/2001/REC-SVG-20010904/DTD/svg10.dtd">
<svg version="1.0" xmlns="http://www.w3.org/2000/svg"
 width="1024.000000pt" height="1024.000000pt" viewBox="0 0 1024.000000 1024.000000"
 preserveAspectRatio="xMidYMid meet">
<metadata>
Created by potrace 1.16, written by Peter Selinger 2001-2019
</metadata>
<g transform="translate(0.000000,1024.000000) scale(0.100000,-0.100000)"
fill="#000000" stroke="none">
<path d="M5110 9541 c-30 -5 -71 -16 -90 -25 -19 -8 -24 -12 -10 -8 40 11 288
7 365 -7 89 -16 192 -52 261 -92 30 -17 54 -32 52 -34 -2 -2 -42 9 -89 25
-105 34 -293 68 -438 80 -158 13 -512 -29 -643 -76 -24 -8 -110 -33 -193 -55
-128 -34 -175 -52 -320 -125 -93 -48 -200 -105 -238 -128 -85 -52 -229 -157
-223 -164 3 -2 38 17 79 42 99 62 186 96 263 103 102 9 79 -9 -59 -48 -135
-38 -214 -91 -202 -136 4 -17 -1 -26 -22 -37 -25 -13 -101 -86 -132 -128 -7
-9 -20 -38 -30 -65 -10 -26 -41 -103 -69 -169 -58 -138 -82 -243 -81 -341 l1
-68 14 60 c31 131 56 189 98 234 61 65 185 140 129 79 -36 -41 -99 -141 -131
-211 l-32 -69 73 78 c82 88 190 177 269 222 81 46 112 49 36 3 -111 -66 -177
-121 -269 -225 -61 -69 -96 -117 -115 -162 -15 -35 -29 -62 -31 -60 -2 2 3 21
11 41 32 75 15 68 -29 -12 -25 -46 -45 -88 -44 -95 0 -7 7 1 15 17 13 27 14
27 10 5 -12 -63 -18 -330 -8 -330 6 0 13 12 15 28 3 23 4 22 6 -8 1 -45 27
-178 40 -213 6 -16 11 -61 12 -100 1 -79 4 -74 33 58 12 51 23 76 42 93 15 13
28 21 30 19 2 -2 -14 -51 -36 -110 -41 -109 -48 -162 -30 -242 4 -22 16 -76
25 -120 8 -44 23 -106 32 -138 9 -31 14 -60 10 -63 -3 -3 -34 -9 -68 -13 -50
-6 -67 -13 -85 -35 -42 -48 -55 -119 -55 -298 0 -271 29 -396 146 -628 115
-227 159 -274 284 -301 56 -12 51 0 66 -154 20 -199 68 -373 122 -444 28 -36
28 -38 31 -207 l3 -171 -58 -59 c-67 -67 -107 -133 -153 -249 -30 -75 -105
-239 -135 -296 -8 -14 -23 -50 -35 -81 -19 -53 -26 -59 -88 -94 -37 -21 -94
-56 -127 -78 -75 -50 -568 -299 -895 -451 -497 -230 -845 -406 -990 -500 -223
-144 -240 -159 -265 -235 -10 -30 -40 -100 -67 -155 -135 -275 -235 -560 -306
-881 -63 -279 -87 -418 -72 -409 4 3 11 -1 14 -7 3 -7 3 -3 1 9 -3 12 -2 24 3
27 6 3 13 23 16 43 4 21 11 52 17 68 5 17 14 49 19 73 6 23 14 40 19 38 4 -3
38 120 76 272 37 152 80 306 95 342 16 36 38 95 49 132 11 36 31 88 44 115 13
26 27 60 30 74 4 14 28 67 55 118 l49 92 32 -42 c17 -24 31 -52 31 -63 0 -12
14 -50 30 -85 22 -45 26 -60 13 -50 -15 12 -16 12 -10 -3 4 -10 2 -18 -4 -18
-6 0 -9 -6 -6 -13 3 -8 1 -20 -5 -28 -8 -11 -9 -11 -5 2 3 9 1 22 -4 30 -6 10
-9 11 -10 2 -2 -19 -4 -24 -28 -77 -13 -27 -23 -63 -24 -81 -1 -23 -5 -31 -14
-28 -7 3 -11 9 -8 13 3 5 -1 13 -10 17 -11 7 -14 18 -9 42 5 23 9 29 15 19 6
-8 8 2 6 27 -1 22 -6 43 -11 47 -6 4 -4 14 4 25 13 16 12 17 -2 3 -28 -26
-134 -337 -125 -363 3 -7 8 5 12 26 7 37 19 48 28 25 2 -7 8 -9 13 -5 5 5 1
15 -10 23 -17 12 -18 14 -3 14 9 0 17 -4 17 -10 0 -5 7 -7 15 -3 9 3 13 8 10
12 -6 6 -11 7 -37 10 -12 1 -2 15 13 17 22 3 23 5 9 14 -8 5 -11 13 -6 17 4 4
14 0 21 -11 8 -10 19 -15 26 -10 8 5 10 3 5 -5 -5 -7 -14 -10 -22 -7 -17 7
-18 -1 -1 -18 7 -7 18 -11 25 -8 9 3 7 -4 -4 -17 -21 -25 -28 -27 -21 -7 4 10
1 13 -9 9 -11 -4 -12 -9 -3 -19 6 -8 15 -11 20 -8 12 7 6 -39 -6 -49 -6 -6 -6
-10 2 -14 9 -3 10 -10 3 -24 -9 -15 -8 -17 7 -12 12 5 15 2 11 -8 -3 -8 0 -26
8 -40 7 -13 13 -19 13 -14 1 6 -4 17 -9 25 -6 10 -4 20 6 31 10 11 12 19 5 24
-6 3 -11 11 -11 17 0 7 6 6 15 -2 10 -9 15 -9 15 -1 0 6 -5 11 -11 11 -5 0 -7
4 -4 10 4 6 11 5 19 -3 8 -6 12 -15 10 -19 -2 -3 2 -9 8 -11 8 -3 5 -6 -6 -6
-16 -1 -16 -3 5 -22 13 -11 18 -18 12 -14 -8 4 -13 0 -13 -10 0 -12 -5 -15
-17 -11 -15 5 -15 4 1 -9 16 -12 22 -12 28 -2 5 8 8 4 8 -11 0 -13 -4 -21 -9
-18 -5 3 -11 -1 -14 -9 -4 -9 -1 -12 7 -9 9 3 13 -6 14 -32 1 -30 -1 -35 -16
-30 -15 5 -15 5 -1 -6 21 -17 30 -46 17 -50 -7 -3 -8 -10 -4 -17 7 -11 10 -11
17 0 7 11 9 10 9 -3 0 -10 -5 -18 -11 -18 -12 0 -39 -25 -39 -35 0 -4 7 -5 15
-1 9 3 19 -3 25 -15 6 -10 7 -19 3 -18 -20 3 -32 -2 -35 -16 -2 -12 -6 -11
-16 6 -12 19 -12 21 2 16 13 -5 13 -2 4 18 -6 13 -15 22 -19 19 -5 -3 -9 -1
-9 5 0 5 5 13 10 16 5 3 10 1 10 -5 0 -6 4 -8 10 -5 6 4 2 15 -10 27 -11 12
-17 25 -13 31 3 5 12 -2 20 -17 8 -15 17 -25 20 -22 3 3 1 12 -5 19 -7 8 -10
16 -7 19 3 3 -6 10 -19 16 -21 9 -24 9 -19 -3 3 -9 -1 -15 -8 -15 -9 -1 -8 -4
4 -11 9 -5 17 -15 17 -21 0 -7 -4 -7 -14 1 -7 6 -22 8 -32 4 -16 -6 -17 -4 -6
9 10 13 10 17 -4 22 -19 7 -40 -8 -56 -38 -6 -14 -1 -11 16 8 14 16 29 26 33
23 3 -4 -3 -18 -15 -30 -17 -17 -18 -24 -8 -24 8 0 15 3 14 6 -2 18 4 21 23
10 15 -8 19 -8 15 0 -4 6 -2 11 4 11 6 0 10 -8 8 -17 -2 -10 -9 -17 -15 -16
-11 2 -9 -44 2 -55 4 -4 6 0 5 8 -4 26 0 40 11 40 5 0 8 -4 4 -9 -3 -5 6 -27
20 -48 32 -46 38 -52 29 -30 -9 25 23 11 38 -17 10 -19 10 -20 -5 -7 -20 16
-23 1 -4 -18 10 -11 9 -13 -6 -8 -9 4 -17 2 -17 -4 0 -6 -4 -8 -10 -4 -5 3 -7
13 -4 23 5 14 4 14 -4 3 -7 -10 -7 -20 1 -32 8 -13 13 -15 19 -6 6 9 10 8 18
-3 13 -19 13 -33 0 -25 -19 12 -10 -6 19 -38 18 -19 27 -35 21 -42 -4 -6 -2
-15 5 -22 9 -9 16 -9 20 -2 4 5 15 7 26 4 19 -6 28 10 9 17 -6 2 -6 8 0 18 8
13 10 13 10 -1 0 -9 9 -24 20 -34 11 -10 16 -21 12 -24 -5 -3 5 -27 23 -53 18
-26 36 -44 39 -40 4 3 4 -2 0 -12 -5 -13 -4 -17 4 -12 6 3 14 1 18 -5 4 -8 3
-9 -4 -5 -7 4 -12 3 -12 -3 0 -5 5 -13 10 -16 6 -4 7 -12 4 -18 -4 -7 -4 -9 1
-5 11 10 36 -12 28 -25 -3 -5 3 -17 14 -26 11 -9 36 -40 57 -68 45 -63 61 -69
34 -14 -11 22 -22 53 -24 69 -4 24 -1 31 18 35 12 4 26 1 31 -6 9 -12 6 -2
-10 41 -3 9 6 4 21 -13 25 -27 27 -27 15 -5 -16 31 -24 105 -8 77 6 -10 8 -25
5 -32 -3 -8 -1 -17 4 -20 16 -10 47 -86 55 -132 6 -39 20 -62 31 -51 2 3 -2
34 -10 69 -8 35 -19 93 -26 129 -16 94 -18 103 -25 123 -5 12 -2 17 8 17 9 0
18 4 21 9 3 4 -5 6 -18 4 -21 -4 -24 0 -35 59 -12 65 -48 195 -108 398 -19 63
-46 153 -59 199 -57 193 -116 346 -199 510 l-88 174 54 48 c30 27 59 49 65 49
17 0 78 -94 64 -98 -22 -8 -90 -74 -85 -83 3 -4 12 -6 20 -2 18 6 19 -8 3 -26
-8 -8 -8 -11 -2 -8 7 4 14 -2 17 -13 3 -11 1 -20 -4 -20 -4 0 -6 -8 -3 -17 3
-10 -2 -7 -10 7 -28 46 -16 2 22 -82 44 -94 70 -158 111 -273 24 -66 32 -80
50 -80 12 0 26 -7 32 -15 9 -13 10 -13 6 1 -3 9 -2 20 3 25 5 5 2 17 -5 28
-14 18 -15 18 -26 -8 -14 -30 -27 -34 -24 -9 4 30 17 53 26 47 5 -3 9 0 9 5 0
6 5 11 10 11 6 0 9 -3 8 -7 -2 -13 13 -43 22 -43 5 0 3 10 -3 22 -26 50 -28
50 -52 23 -24 -25 -24 -25 -35 -5 -6 11 -8 20 -5 20 3 0 1 9 -5 21 -9 15 -8
24 1 35 10 12 9 13 -6 8 -13 -5 -16 -4 -11 4 4 7 0 15 -9 18 -14 6 -13 8 5 21
11 8 18 18 15 23 -3 4 2 11 11 14 19 7 42 -14 36 -34 -5 -13 -3 -13 12 -1 15
13 19 13 27 0 7 -12 9 -12 8 1 0 28 -35 101 -44 93 -4 -4 -5 -3 -2 3 4 7 0 28
-8 48 -19 45 -19 56 0 29 26 -37 192 -539 182 -549 -8 -8 -37 14 -37 28 0 6 7
4 17 -3 15 -13 15 -12 2 8 -13 22 -14 22 -24 3 -8 -14 -14 -17 -22 -9 -7 7
-15 6 -27 -6 -20 -21 -21 -35 0 -35 8 0 12 4 9 10 -3 5 -1 10 4 10 13 0 14
-10 2 -29 -5 -7 -14 -11 -20 -7 -7 5 -9 1 -5 -9 4 -9 13 -14 20 -11 7 3 16 0
20 -6 4 -7 10 -5 16 6 5 9 15 13 21 10 7 -4 1 5 -12 19 -25 28 -21 38 5 12 8
-8 21 -12 28 -9 10 4 19 -11 30 -48 17 -60 10 -77 -21 -49 -11 11 -24 17 -27
14 -3 -4 -6 -2 -6 4 0 6 9 13 20 16 21 5 28 27 8 27 -6 0 -8 -3 -5 -7 4 -3 -3
-11 -16 -18 -17 -8 -25 -8 -36 3 -8 8 -24 12 -37 9 -15 -2 -21 0 -17 9 2 6 -1
15 -7 19 -18 11 -21 0 -9 -31 6 -16 13 -23 16 -16 6 14 43 16 43 2 0 -5 -6
-10 -12 -10 -29 -1 -41 -17 -29 -39 7 -12 16 -19 22 -15 6 4 6 11 -2 20 -9 11
-8 14 5 14 9 0 16 -5 16 -10 0 -6 3 -9 8 -9 19 3 25 -2 12 -11 -11 -8 -6 -9
18 -5 33 6 38 0 22 -25 -9 -13 -11 -13 -20 0 -6 10 -10 11 -10 3 0 -7 -6 -11
-13 -9 -6 1 -9 1 -4 -1 13 -8 -3 -22 -18 -17 -8 4 -13 10 -10 14 3 5 1 11 -5
15 -11 7 -13 -9 -4 -42 4 -13 10 -23 15 -23 5 0 5 8 2 18 -7 16 -5 16 17 1 13
-9 26 -22 29 -30 3 -11 1 -11 -14 1 -17 14 -18 13 -12 -2 4 -12 2 -15 -7 -12
-10 4 -12 -2 -9 -20 3 -14 10 -26 15 -26 5 0 6 -5 2 -12 -4 -7 -3 -8 5 -4 6 4
14 0 18 -9 3 -10 0 -21 -8 -26 -11 -6 -11 -11 -1 -21 9 -9 12 -9 12 5 0 9 5
17 11 17 5 0 7 -5 4 -11 -4 -5 1 -19 11 -30 9 -10 12 -19 6 -19 -6 0 -14 5
-17 10 -3 6 -12 10 -18 10 -7 -1 -5 -6 5 -13 9 -7 16 -22 15 -32 -1 -11 5 -20
13 -21 31 -2 35 -5 20 -14 -11 -7 -11 -10 -2 -10 7 0 10 -5 7 -10 -4 -6 -12
-7 -19 -3 -7 4 -5 1 4 -7 16 -15 20 -23 20 -40 0 -5 5 -10 11 -10 8 0 8 5 -1
15 -16 19 -2 20 19 1 10 -9 22 -12 30 -7 9 6 10 11 2 15 -6 4 -11 2 -11 -4 0
-6 -5 -8 -11 -4 -8 5 -8 8 0 13 6 4 13 21 15 39 2 17 9 39 16 47 7 8 9 22 6
31 -8 20 -15 15 -21 -14 -2 -12 -9 -30 -15 -39 -9 -16 -10 -15 -5 5 4 13 1 30
-7 39 -11 15 -11 16 4 10 10 -3 18 -2 18 3 0 6 -4 10 -10 10 -5 0 -10 5 -10
11 0 8 4 8 14 0 11 -9 15 -8 20 4 3 9 2 13 -4 10 -5 -3 -7 1 -4 9 9 23 -5 39
-21 26 -8 -7 -19 -9 -25 -5 -5 3 -10 -1 -10 -10 0 -9 4 -14 9 -11 5 3 8 -8 7
-25 -1 -17 -8 -34 -15 -39 -9 -5 -10 -10 -2 -14 6 -4 11 -2 11 4 0 6 4 8 10 5
6 -4 5 -11 -3 -20 -13 -15 -37 -2 -37 20 0 8 6 16 13 18 10 4 10 6 0 6 -7 1
-13 6 -13 12 0 6 7 8 16 5 15 -6 15 -4 2 16 -13 20 -13 25 4 54 16 28 17 32 3
38 -8 3 -15 10 -15 16 0 6 11 3 25 -6 14 -9 25 -12 25 -8 1 13 39 -96 49 -138
7 -29 6 -35 -5 -31 -10 4 -12 0 -7 -13 4 -11 3 -15 -5 -10 -14 8 -12 -36 3
-46 17 -13 28 -9 16 6 -9 11 -8 15 4 20 13 4 16 0 14 -17 -2 -12 0 -28 4 -34
5 -8 3 -13 -4 -13 -8 0 -8 -4 1 -15 17 -20 1 -19 -22 2 -12 10 -18 12 -18 4 0
-7 -5 -9 -10 -6 -5 3 -10 0 -10 -8 0 -7 -7 -14 -15 -14 -8 0 -15 4 -15 9 0 4
5 8 12 8 6 0 9 3 5 6 -7 8 -51 -27 -54 -43 -1 -6 4 -13 11 -16 10 -4 12 0 9
14 -3 11 0 19 6 19 7 0 10 -4 7 -9 -3 -5 2 -15 12 -22 15 -13 16 -12 3 4 -8
10 -9 17 -3 17 14 0 56 -59 48 -67 -3 -3 -14 0 -23 8 -17 12 -17 12 -1 -6 13
-14 20 -16 31 -7 7 6 18 8 23 4 5 -4 -6 7 -24 26 -29 30 -40 52 -27 52 3 0 17
-12 31 -27 14 -17 22 -21 18 -11 -8 22 9 24 26 3 10 -12 10 -15 -1 -15 -11 0
-11 -2 0 -9 8 -5 28 -56 43 -113 34 -120 36 -131 37 -140 1 -5 6 -8 12 -8 8 0
9 12 4 38 -4 20 -9 48 -11 62 -2 14 -7 49 -12 78 -8 43 -7 52 4 48 8 -3 14 0
14 6 0 24 20 -8 23 -37 2 -17 7 -38 10 -47 4 -10 10 -26 14 -35 3 -10 5 -24 4
-32 -1 -7 2 -10 7 -7 11 7 23 -17 18 -37 -1 -6 -1 -8 2 -4 2 5 13 1 23 -9 16
-15 19 -15 19 -2 0 9 -7 18 -15 22 -8 3 -15 13 -15 23 0 15 2 15 15 -3 14 -18
15 -16 9 21 -10 59 -13 77 -19 107 -4 14 -1 29 4 33 7 4 6 16 -4 36 -14 27
-14 31 0 45 16 17 11 39 -7 28 -7 -4 -8 -2 -4 5 4 6 11 9 16 6 4 -3 11 2 14
11 3 8 2 12 -4 9 -5 -3 -7 1 -4 9 3 9 12 12 22 8 14 -5 15 -4 2 11 -14 15 -16
15 -31 -3 -15 -17 -18 -17 -23 -4 -3 8 -2 12 4 9 10 -6 14 8 10 34 -2 13 1 13
17 0 16 -13 17 -12 5 3 -8 9 -20 14 -28 11 -10 -4 -11 -9 -5 -17 7 -8 4 -12
-9 -12 -14 0 -16 4 -9 18 5 9 9 21 8 25 -5 30 2 35 24 17 l22 -19 -19 23 c-18
20 -16 26 9 23 6 -1 2 5 -9 13 -10 8 -15 19 -11 25 3 6 2 18 -3 28 -11 19 -42
27 -42 10 0 -5 -3 -8 -6 -5 -3 4 0 17 7 30 11 21 11 22 -4 9 -15 -12 -17 -11
-17 7 0 12 -5 24 -11 28 -7 4 -9 21 -6 40 3 19 1 36 -4 40 -5 3 -7 9 -4 14 8
13 -6 41 -18 33 -6 -3 -7 -1 -3 5 4 7 0 22 -8 34 -9 12 -16 27 -16 33 1 5 7
-1 15 -15 8 -14 14 -19 15 -13 0 7 -10 23 -21 34 -12 12 -21 32 -21 45 0 12
-9 32 -20 43 -10 12 -16 21 -12 21 4 0 -1 10 -12 22 -13 14 -14 19 -4 14 8 -4
7 -1 -4 8 -12 10 -17 23 -13 36 3 13 -1 29 -11 39 -18 18 -22 30 -26 69 -2 12
-6 25 -9 29 -12 11 -8 25 5 17 7 -5 8 -3 3 5 -5 9 -10 10 -18 2 -17 -17 -26
-13 -20 9 3 11 10 17 16 13 6 -3 7 -1 3 6 -6 9 -11 9 -21 1 -9 -7 -16 -6 -24
4 -13 15 -4 49 11 40 5 -3 4 -12 -3 -20 -10 -12 -9 -13 5 -8 21 8 21 11 -11
48 -15 17 -24 23 -20 14 3 -10 2 -18 -4 -18 -6 0 -7 -6 -3 -13 5 -8 2 -8 -9 2
-9 7 -17 19 -17 25 0 6 5 4 10 -4 6 -9 10 -10 10 -3 0 6 -4 15 -10 18 -16 10
-12 28 5 22 21 -9 28 8 10 23 -12 10 -21 10 -40 2 -14 -7 -25 -8 -25 -3 0 5 5
11 12 13 6 2 12 16 12 31 2 26 1 26 -16 7 -10 -11 -17 -25 -16 -31 5 -20 -22
-22 -28 -2 -8 25 -42 102 -61 137 -14 26 -14 29 1 38 9 5 14 13 11 19 -4 5 -1
9 4 9 6 0 11 4 11 10 0 5 -8 6 -18 3 -15 -6 -15 -5 -3 10 7 9 9 17 4 17 -10 0
-60 39 -52 41 2 0 14 2 26 3 28 3 38 12 24 21 -6 3 -11 1 -11 -4 0 -6 -4 -11
-10 -11 -20 0 -9 20 20 35 20 10 30 12 30 4 0 -6 7 -9 15 -5 8 3 15 1 15 -4 0
-6 -5 -10 -11 -10 -6 0 -9 -6 -6 -12 2 -7 10 -13 18 -13 8 0 13 -8 11 -18 -2
-9 1 -17 6 -17 12 0 34 49 27 61 -4 5 -2 9 4 9 16 0 25 -22 11 -30 -8 -5 -8
-10 -2 -14 13 -8 23 19 15 41 -6 14 -3 14 19 -3 25 -18 29 -40 5 -28 -7 3 -4
-1 5 -9 22 -17 11 -32 -11 -14 -14 11 -15 10 -1 -7 14 -18 13 -19 -2 -13 -21
7 -35 -10 -20 -25 7 -7 8 -17 2 -29 -15 -27 -30 -69 -25 -69 2 0 14 23 26 50
21 49 22 50 45 35 13 -8 27 -15 31 -15 4 0 0 5 -10 11 -9 6 -15 15 -11 21 4 7
9 6 14 -2 5 -8 9 -7 13 5 5 10 3 14 -4 9 -7 -4 -10 -1 -7 7 3 8 12 13 19 11 9
-2 8 3 -4 16 -27 30 -20 38 10 11 15 -13 21 -16 14 -6 -15 20 -2 23 19 4 8 -6
6 -2 -4 10 -10 12 -27 25 -37 28 -11 4 -19 10 -19 15 0 6 11 5 26 -1 24 -8 25
-8 14 6 -7 8 -15 13 -18 11 -2 -3 -12 3 -21 12 -9 10 -13 13 -8 6 4 -6 5 -19
1 -28 -5 -14 -10 -13 -34 7 -37 29 -38 53 -2 60 20 4 32 1 45 -15 19 -23 21
-20 7 16 -5 14 -5 28 -1 31 5 2 12 -5 15 -18 4 -12 24 -35 44 -52 20 -16 31
-22 24 -13 -9 11 -11 22 -4 34 6 11 11 13 16 5 4 -6 2 -11 -5 -11 -8 0 -7 -6
4 -18 11 -12 13 -22 7 -32 -7 -12 -16 -8 -46 20 -26 25 -33 29 -25 13 6 -12
20 -28 31 -36 11 -8 19 -20 17 -28 -2 -8 -2 -11 0 -6 10 17 23 6 13 -12 -5
-11 -10 -23 -10 -28 1 -4 7 3 14 16 8 14 11 32 8 40 -5 14 -3 14 11 3 8 -8 14
-19 11 -27 -3 -7 -1 -16 5 -20 7 -4 8 0 4 11 -5 13 -3 15 8 9 8 -5 5 3 -7 16
-20 24 -31 75 -14 64 6 -4 7 2 3 12 -6 16 -4 16 17 -2 13 -11 20 -14 16 -8 -4
7 -2 21 3 32 8 15 6 22 -12 37 -22 19 -22 19 -5 -1 20 -25 8 -59 -14 -37 -8 8
-8 12 -1 12 8 0 8 7 0 25 -7 14 -18 25 -26 25 -11 0 -11 -4 2 -18 26 -29 20
-38 -7 -13 -29 27 -24 50 9 47 17 -2 22 1 17 12 -3 9 -1 13 5 9 5 -4 28 3 49
14 21 11 70 32 108 45 55 19 72 21 79 12 6 -10 8 -9 4 3 -4 12 7 20 44 31 27
9 49 12 49 7 0 -5 5 -9 10 -9 6 0 9 5 8 12 -2 7 32 26 77 43 44 18 94 37 110
44 53 21 57 22 72 10 7 -7 17 -9 20 -5 4 4 1 11 -6 15 -9 6 3 14 38 26 28 9
53 21 57 26 3 5 9 7 14 4 5 -3 11 -1 15 5 3 5 15 10 27 10 17 0 18 -3 8 -15
-7 -8 -17 -12 -23 -8 -6 3 -7 1 -3 -5 5 -9 13 -8 29 3 22 14 23 13 22 -9 0
-30 -22 -56 -41 -49 -12 4 -18 -7 -16 -28 1 -4 -8 -15 -18 -24 -11 -10 -20
-25 -21 -34 0 -10 -2 -12 -6 -3 -8 21 -25 13 -19 -10 3 -13 3 -17 0 -10 -3 6
-10 12 -16 12 -6 0 -4 -7 3 -17 11 -13 11 -17 1 -20 -6 -3 -10 -9 -6 -14 3 -5
1 -9 -5 -9 -5 0 -13 5 -17 11 -5 8 -10 6 -16 -6 -7 -12 -6 -22 6 -33 12 -12
16 -13 16 -3 0 7 6 11 14 8 10 -4 13 -1 10 8 -3 7 3 22 14 33 11 11 17 24 14
28 -4 4 -1 4 6 0 7 -4 10 -11 7 -16 -3 -4 2 -13 10 -20 12 -10 15 -9 15 4 0 9
5 16 10 16 6 0 10 8 10 17 0 15 2 14 15 -3 14 -18 14 -18 8 3 -4 18 0 23 21
29 16 4 28 15 32 30 3 13 11 21 17 17 5 -3 7 -1 4 4 -4 6 2 21 13 33 11 13 20
27 20 32 0 5 5 6 10 3 6 -3 10 -2 10 4 0 5 16 26 35 47 19 20 35 40 35 43 0
10 92 101 102 101 5 0 26 12 46 26 l37 26 -40 -37 c-22 -20 -41 -42 -41 -48
-1 -7 -2 -16 -3 -22 -1 -5 -6 -3 -11 5 -6 9 -10 10 -10 3 0 -17 21 -27 30 -14
5 9 11 7 21 -5 12 -15 12 -17 0 -9 -11 6 -13 4 -8 -8 3 -10 2 -17 -2 -17 -5 0
-11 6 -14 13 -2 6 -8 8 -13 4 -5 -5 -1 -15 10 -23 11 -8 15 -14 10 -14 -6 0
-14 3 -18 7 -14 15 -34 10 -39 -9 -4 -15 -3 -17 8 -8 7 6 25 8 40 4 19 -5 23
-9 14 -15 -8 -4 -20 -3 -29 4 -8 6 -12 8 -8 3 4 -5 3 -17 -3 -27 -6 -12 -6
-19 0 -19 5 0 12 8 14 18 4 16 5 16 6 -1 0 -10 6 -15 11 -12 6 4 8 11 5 16 -4
5 1 9 9 9 9 0 13 -6 10 -14 -3 -8 -1 -17 5 -21 7 -4 8 1 4 12 -6 17 -5 17 13
0 16 -15 17 -19 4 -27 -9 -6 -20 -5 -30 3 -13 10 -13 10 -3 -4 14 -17 8 -29
-10 -25 -7 2 -9 1 -5 -1 4 -2 4 -11 1 -19 -5 -13 -7 -13 -14 -2 -7 10 -9 10
-10 -2 0 -8 -7 -1 -14 15 -8 17 -14 24 -15 17 -1 -29 20 -51 44 -46 20 3 23 1
19 -20 -3 -13 1 -27 8 -31 8 -5 10 -4 5 4 -5 7 -5 23 -2 36 4 17 11 22 25 18
11 -3 27 -1 35 4 14 8 14 11 2 28 -15 19 -15 19 -9 -2 4 -19 1 -23 -16 -23
-11 0 -21 5 -21 10 0 6 5 10 12 10 6 0 8 3 5 7 -4 3 -2 12 4 20 9 10 8 17 -1
29 -11 12 -10 18 4 32 17 16 18 16 11 -7 -5 -17 -4 -21 5 -16 9 5 10 1 5 -16
-5 -18 -4 -20 4 -9 8 12 14 13 28 3 10 -6 17 -17 15 -24 -2 -7 5 -19 14 -26
16 -12 16 -13 1 -13 -9 0 -21 9 -27 20 -8 14 -8 20 0 20 6 0 8 5 4 11 -12 20
-27 -7 -15 -29 9 -17 6 -23 -14 -36 -22 -15 -24 -19 -11 -31 8 -8 18 -15 22
-15 5 0 3 5 -4 12 -15 15 -16 32 -2 23 6 -3 10 -1 10 5 0 6 5 8 10 5 6 -3 8
-18 5 -33 -3 -15 -2 -21 1 -14 5 10 9 10 22 0 13 -11 14 -11 7 2 -14 23 -13
47 2 47 7 0 13 -5 13 -10 0 -5 7 -7 15 -3 8 3 15 0 15 -7 0 -7 6 -3 12 8 6 11
16 23 22 27 7 5 7 8 -2 8 -10 0 -10 3 2 15 8 8 20 15 26 15 6 0 8 5 4 12 -5 7
-3 8 6 3 10 -6 7 -12 -11 -26 -13 -10 -20 -19 -15 -19 4 0 -4 -16 -18 -35 -26
-34 -29 -75 -5 -75 13 0 11 -28 -2 -32 -8 -3 -6 -10 5 -21 18 -18 38 -14 35 6
-3 26 2 36 21 42 11 3 19 9 19 13 -4 24 3 34 17 28 14 -5 15 -4 5 8 -13 15
-45 11 -36 -4 8 -12 -6 -41 -16 -34 -5 3 -9 0 -9 -5 0 -6 -5 -11 -11 -11 -8 0
-8 4 0 14 9 10 8 16 -3 26 -12 9 -13 16 -4 30 7 10 17 16 23 12 16 -10 35 -11
35 -1 0 4 6 7 13 5 6 -1 9 -1 5 1 -5 3 -8 14 -7 26 0 21 1 21 10 2 7 -15 8
-11 4 17 -3 21 -1 39 5 43 6 4 10 3 9 -2 -3 -19 2 -27 10 -14 8 12 13 12 34
-2 14 -9 28 -24 31 -34 3 -10 19 -27 36 -38 22 -15 28 -25 24 -41 -3 -12 -1
-25 5 -28 5 -4 7 -14 4 -23 -5 -12 -2 -15 10 -10 15 5 16 3 7 -13 -8 -15 -6
-22 8 -32 18 -12 18 -14 2 -41 -10 -16 -21 -24 -24 -19 -3 6 -2 13 4 17 6 4 5
11 -4 21 -18 18 -22 18 -29 0 -4 -10 -1 -13 9 -9 7 3 14 0 14 -6 0 -6 -5 -11
-12 -11 -6 0 -4 -6 7 -13 20 -16 11 -42 -12 -33 -8 3 -11 1 -8 -5 4 -5 12 -8
18 -6 7 2 20 0 31 -5 12 -7 16 -7 12 0 -3 5 2 16 11 23 15 12 16 12 9 -6 -4
-11 -4 -17 -1 -13 4 3 16 -3 26 -13 20 -20 20 -20 -10 -55 -32 -36 -43 -60
-15 -32 16 15 18 15 36 -5 l20 -22 -16 25 c-18 27 -20 40 -8 40 5 0 14 -10 19
-22 8 -18 9 -11 5 32 -9 101 6 47 27 -99 28 -191 61 -248 129 -226 16 5 19 2
15 -13 -2 -11 3 -24 14 -33 16 -13 17 -12 5 2 -7 9 -10 27 -8 40 3 13 5 26 5
29 1 3 6 -2 11 -10 8 -12 10 -11 10 6 0 12 7 27 15 34 12 10 15 10 15 -3 0 -9
7 -14 18 -12 9 2 22 4 27 5 6 1 1 5 -10 10 -19 8 -19 9 2 9 12 1 25 6 29 12 5
8 10 6 16 -5 5 -9 14 -14 20 -10 6 4 8 -2 4 -17 -3 -13 -3 -18 0 -11 3 6 10
10 15 7 5 -4 6 1 3 9 -6 16 11 17 35 2 11 -7 10 -3 -2 15 -19 26 -22 43 -7 34
6 -4 7 1 4 12 -4 11 4 6 20 -12 17 -20 24 -23 19 -11 -4 13 -3 17 4 13 7 -5 9
1 6 15 l-5 23 21 -24 c13 -14 21 -18 21 -10 1 9 6 7 16 -6 8 -11 20 -19 25
-17 6 1 8 -6 4 -17 -3 -11 -2 -22 3 -25 5 -3 8 11 6 30 -2 29 1 34 13 30 13
-5 14 -4 3 9 -7 9 -10 18 -6 22 3 3 6 1 6 -6 0 -8 6 -11 16 -7 13 5 15 1 12
-19 -3 -13 -2 -22 2 -20 4 2 17 -7 30 -20 15 -16 30 -23 44 -19 15 3 33 -7 64
-37 23 -23 42 -44 42 -48 0 -4 14 -15 30 -25 17 -9 28 -21 25 -27 -3 -5 1 -6
10 -3 11 5 13 10 5 19 -5 6 -7 14 -4 18 10 10 -16 47 -34 47 -12 1 -9 5 11 16
15 8 27 17 27 20 0 3 -5 2 -11 -2 -6 -3 -22 6 -35 21 -27 32 -33 23 -6 -10 9
-12 2 -6 -15 12 l-33 33 27 55 28 56 145 -149 c147 -151 237 -232 144 -132
-28 30 -59 69 -69 85 -11 17 -45 62 -77 102 -60 74 -68 89 -44 80 8 -3 17 1
20 10 5 11 2 14 -11 8 -10 -3 -22 -7 -26 -8 -17 -4 -47 68 -47 112 0 57 12 46
17 -16 4 -52 34 -96 48 -72 6 8 4 10 -5 4 -9 -5 -11 -4 -6 4 9 14 24 5 50 -26
15 -19 21 -21 33 -12 9 8 7 0 -5 -22 -18 -29 -18 -36 -6 -47 8 -7 14 -9 14 -4
0 6 11 17 24 25 22 15 25 15 42 -6 16 -18 16 -20 2 -8 -13 10 -18 10 -18 2 0
-7 -5 -9 -11 -5 -6 3 -4 -5 5 -18 9 -14 14 -28 11 -31 -3 -4 -2 -5 2 -2 3 3
13 -1 22 -7 12 -10 12 -8 -1 8 -20 23 -25 45 -6 26 16 -16 31 -15 22 0 -5 7 5
3 21 -8 l29 -22 18 22 c16 18 15 15 -2 -15 -19 -34 -19 -37 -3 -51 10 -9 26
-14 36 -13 9 2 17 -1 17 -6 0 -6 5 -7 10 -4 6 4 8 9 6 13 -2 4 2 13 10 20 17
15 17 12 4 -23 -7 -17 -7 -24 0 -20 6 3 10 1 10 -4 0 -6 5 -11 11 -11 8 0 8 4
-1 14 -9 11 -9 19 0 33 10 16 10 16 5 -4 -5 -18 -2 -21 14 -18 11 2 20 1 20
-3 -3 -19 3 -22 20 -12 14 7 22 7 27 -2 4 -6 3 -8 -4 -4 -6 3 -17 0 -25 -9
-13 -13 -16 -13 -22 2 -5 15 -7 15 -15 3 -6 -8 -10 -19 -10 -25 0 -5 4 -3 10
5 8 12 10 12 16 -3 3 -9 10 -15 14 -12 11 7 33 -22 26 -34 -4 -5 -2 -12 3 -15
5 -4 12 -2 16 4 4 7 13 7 28 -1 22 -10 22 -10 2 6 -16 13 -17 17 -6 24 8 6 9
11 3 15 -6 3 -14 -3 -17 -15 -4 -11 -9 -18 -12 -16 -2 3 1 15 7 27 11 21 13
21 30 5 11 -10 19 -20 19 -24 -2 -15 14 -51 23 -51 5 0 6 5 2 12 -4 7 -3 8 5
4 8 -5 9 -12 3 -19 -106 -135 -154 -238 -176 -378 -18 -108 -36 -323 -36 -416
0 -49 -3 -62 -12 -57 -10 6 -10 5 -1 -8 7 -8 11 -17 8 -20 -2 -2 -5 -33 -7
-69 -1 -35 -5 -71 -9 -80 -5 -9 -5 -20 -1 -24 8 -7 8 -13 18 -132 6 -76 23
-117 41 -100 3 4 8 93 10 199 6 305 21 608 33 673 17 92 68 238 100 287 16 23
111 124 211 223 180 178 218 229 219 286 0 15 7 32 15 39 9 7 68 25 133 40 64
16 127 31 140 35 21 7 22 6 9 -23 -7 -17 -24 -44 -37 -60 -14 -15 -32 -41 -40
-57 -12 -22 -24 -30 -48 -32 -18 -2 -42 -7 -52 -13 -13 -7 -27 -7 -45 2 -24
11 -32 5 -183 -143 -86 -85 -185 -185 -220 -224 -68 -75 -129 -185 -139 -250
-6 -39 4 -47 11 -9 7 37 65 146 100 189 68 82 242 246 261 245 3 0 13 7 23 16
38 34 90 62 99 53 12 -12 71 20 77 41 3 11 4 11 5 -2 1 -24 14 -23 36 2 10 11
25 19 34 18 10 -2 15 3 13 12 -2 8 0 12 4 8 4 -4 13 0 21 10 13 16 13 16 11
-3 -2 -11 -6 -22 -9 -25 -20 -18 -74 -111 -100 -170 -88 -209 -109 -382 -110
-928 0 -228 2 -416 5 -420 3 -3 8 -3 11 0 3 3 5 167 5 364 -2 556 1 619 36
772 31 133 53 179 175 359 9 12 40 50 70 84 30 33 57 68 60 77 5 13 13 4 31
-33 30 -63 92 -160 108 -170 15 -9 67 40 127 120 25 33 49 60 54 60 5 0 20 12
33 28 21 24 25 25 36 12 11 -13 10 -14 -6 -8 -15 5 -13 0 9 -26 15 -18 24 -38
21 -43 -4 -6 -2 -8 3 -5 12 8 33 -14 37 -37 3 -19 36 -57 46 -51 4 2 17 -7 30
-20 13 -13 27 -22 32 -19 5 3 24 -3 42 -14 18 -11 52 -23 74 -27 35 -6 45 -3
65 18 14 13 29 45 36 75 10 47 66 419 96 632 42 309 60 408 69 402 14 -8 32
-12 86 -18 25 -2 38 -1 30 2 -8 3 -40 17 -70 30 l-55 25 -1 144 c-1 92 2 145
9 145 15 0 215 -129 274 -177 29 -24 56 -43 60 -43 5 0 -1 7 -11 15 -11 8 -16
18 -13 22 4 3 89 -34 190 -84 100 -50 256 -128 347 -173 91 -44 210 -105 265
-134 55 -29 260 -133 455 -232 195 -99 396 -203 445 -232 151 -89 229 -139
233 -150 2 -6 -22 -60 -53 -121 -96 -192 -213 -506 -305 -818 -34 -114 -70
-235 -80 -268 -40 -128 -97 -472 -80 -489 6 -6 11 -4 14 5 26 81 48 171 62
254 9 55 29 143 44 195 15 52 33 120 40 150 46 213 210 692 307 895 30 64 60
112 66 104 86 -108 299 -700 407 -1129 26 -106 42 -150 52 -150 4 0 7 -3 6 -7
-1 -8 15 -53 32 -88 l10 -20 -5 20 c-2 11 -14 76 -26 145 -31 184 -121 535
-179 694 -28 76 -93 238 -145 360 -52 122 -99 240 -105 263 -12 46 -45 73
-195 160 -193 112 -1419 735 -1745 888 -58 27 -169 87 -248 134 l-143 85 -84
172 c-47 95 -94 196 -106 226 -45 115 -114 232 -172 295 l-59 63 4 158 4 157
37 60 c52 83 83 191 112 395 14 95 25 180 25 187 0 8 12 13 30 13 16 0 54 9
85 21 89 33 133 87 225 272 112 229 144 369 142 632 -2 195 -13 248 -62 297
-27 27 -47 38 -71 40 -30 1 -45 3 -70 7 -4 1 1 34 11 74 16 59 41 207 76 436
4 26 8 31 15 20 6 -10 9 -2 9 26 0 22 7 78 15 125 16 92 18 197 6 274 -7 44
-7 47 6 30 8 -10 19 -38 25 -61 14 -59 31 -55 23 5 -31 225 -92 434 -165 565
-57 103 -40 98 24 -7 44 -70 86 -176 86 -215 0 -11 5 -23 11 -27 18 -11 2 128
-23 201 -53 159 -196 305 -312 321 -28 4 -45 11 -43 18 34 92 39 123 35 210
-5 119 -41 201 -125 284 -56 55 -168 130 -179 120 -3 -3 20 -19 50 -36 82 -47
122 -87 157 -157 39 -80 42 -152 8 -240 l-23 -60 -12 131 c-9 104 -17 142 -38
191 -25 56 -96 141 -96 116 0 -6 6 -16 14 -22 34 -28 60 -119 81 -281 l6 -45
-30 62 c-16 34 -47 86 -69 115 -22 29 -52 78 -68 108 -16 30 -60 87 -98 127
-113 120 -260 198 -395 210 -36 3 -116 18 -177 34 -122 31 -296 44 -394 30z
m626 -105 c90 -30 126 -49 194 -101 58 -44 135 -124 127 -131 -8 -8 -221 114
-277 159 -31 26 -77 58 -101 72 -55 31 -33 32 57 1z m-150 -77 c101 -31 230
-86 306 -130 65 -38 183 -154 173 -170 -3 -4 -1 -10 5 -14 5 -3 10 -12 10 -18
0 -12 -94 82 -95 95 0 9 -81 61 -148 94 -29 15 -77 42 -108 61 -31 19 -96 49
-145 68 -101 39 -100 45 2 14z m-40 -129 c96 -25 170 -59 290 -133 94 -58 219
-166 255 -220 l21 -32 -26 28 c-42 46 -227 180 -310 226 -63 35 -207 88 -376
138 l-35 11 51 1 c28 1 86 -8 130 -19z m64 -170 c103 -25 128 -35 252 -95 136
-65 216 -140 267 -249 51 -107 61 -147 17 -68 -77 140 -168 227 -299 287 -73
34 -340 103 -467 122 -208 31 -209 32 -30 28 137 -2 194 -8 260 -25z m-60 -56
c152 -41 228 -83 316 -177 43 -46 73 -86 70 -93 -3 -8 -1 -14 4 -14 6 0 10 -7
10 -16 0 -9 5 -12 12 -8 7 4 8 3 4 -4 -4 -7 -2 -12 4 -12 6 0 8 -5 5 -10 -3
-6 -25 13 -47 42 -68 86 -160 171 -219 200 -30 15 -101 46 -159 69 -149 59
-149 64 0 23z m-49 -26 c122 -43 195 -87 270 -164 77 -78 124 -144 149 -211
28 -75 25 -101 -4 -31 -31 75 -83 145 -164 218 -134 121 -294 178 -577 207
l-80 8 95 6 c147 10 206 3 311 -33z m-346 -58 c121 -18 197 -41 289 -88 89
-46 186 -127 206 -174 5 -12 21 -40 35 -60 14 -21 -23 11 -82 72 -99 99 -116
113 -204 154 -70 32 -126 50 -210 66 -63 12 -127 25 -144 30 l-30 8 35 1 c19
0 67 -4 105 -9z m30 -68 c44 -11 103 -27 130 -36 122 -38 262 -162 329 -293
22 -43 14 -42 -12 0 -10 18 -48 64 -83 101 -140 151 -347 225 -678 246 l-136
8 185 -3 c143 -3 203 -8 265 -23z m-94 -82 c113 -29 173 -54 250 -107 71 -47
116 -88 72 -64 -13 6 -23 9 -23 5 0 -3 -22 10 -49 29 -56 40 -105 67 -122 67
-7 0 6 -13 29 -29 55 -41 65 -61 11 -24 -83 57 -155 87 -296 123 -24 6 -43 13
-43 15 0 12 99 3 171 -15z m-1341 -22 c-14 -6 -47 -21 -75 -33 -49 -21 -200
-150 -247 -211 -21 -27 -20 -27 22 7 65 52 144 89 203 95 l52 5 -84 -35 c-103
-43 -135 -67 -207 -156 -32 -38 -59 -68 -62 -66 -2 2 11 29 28 60 17 30 29 60
25 65 -11 18 45 111 98 162 73 71 167 118 237 118 34 0 34 -1 10 -11z m1161
-22 c86 -17 161 -41 198 -64 111 -67 185 -128 175 -144 -3 -5 -2 -7 3 -6 8 3
13 -5 13 -23 0 -6 -19 5 -42 24 -86 69 -259 158 -393 203 -81 27 -63 30 46 10z
m-1243 -525 c-97 -66 -177 -138 -232 -212 -46 -61 -61 -96 -28 -66 19 17 232
120 272 131 27 8 -12 -16 -122 -76 -136 -75 -189 -110 -215 -145 -15 -19 -29
-31 -30 -26 -6 16 54 163 83 205 33 47 132 126 238 190 104 63 128 62 34 -1z
m2222 -195 c0 -3 -19 -16 -42 -30 l-43 -26 48 0 c30 0 46 -4 42 -10 -3 -5 1
-10 10 -10 9 0 29 -6 43 -13 15 -8 54 -23 87 -34 33 -11 59 -25 58 -30 -1 -6
17 -16 40 -23 33 -10 38 -14 23 -19 -16 -6 -11 -14 37 -57 31 -27 57 -57 57
-66 0 -9 5 -20 10 -23 6 -3 10 -11 10 -16 0 -6 -5 -7 -10 -4 -7 4 -8 -3 -4
-22 4 -15 8 -47 9 -69 2 -23 8 -51 14 -63 9 -16 9 -21 0 -21 -6 0 -9 -6 -6
-12 17 -47 19 -60 6 -53 -9 6 -10 3 -5 -11 5 -10 10 -34 13 -51 4 -28 2 -32
-13 -26 -15 5 -14 1 6 -27 13 -18 18 -30 11 -26 -18 11 -5 -29 20 -66 19 -26
19 -26 -2 -21 -20 5 -20 4 -9 -18 7 -13 24 -39 38 -58 14 -19 20 -31 14 -27
-17 10 -15 -2 6 -32 30 -43 51 -106 67 -198 8 -48 15 -88 15 -90 0 -7 -42 -4
-85 7 -37 9 -50 19 -76 60 -45 71 -130 145 -186 162 -74 24 -182 21 -343 -8
-202 -37 -300 -62 -322 -81 -20 -19 -25 -5 -6 14 9 9 9 12 1 12 -7 0 -19 -10
-27 -22 -15 -21 -16 -21 -16 -3 0 18 -2 18 -20 -5 -11 -14 -20 -31 -20 -39 0
-10 -3 -11 -14 -2 -17 14 -25 -11 -27 -79 l-1 -45 -9 39 c-14 59 -22 58 -17
-2 l5 -54 -26 8 c-14 4 -99 8 -189 9 l-164 1 -19 45 c-20 43 -116 145 -127
134 -3 -3 0 -11 6 -17 7 -7 12 -17 12 -22 0 -6 -13 5 -30 24 -16 19 -27 27
-24 17 6 -17 1 -16 -43 7 -28 14 -74 28 -104 32 -30 4 -101 18 -159 31 -58 13
-131 29 -164 35 -32 6 -54 13 -49 17 12 8 25 41 15 40 -20 -3 -21 3 -6 26 9
14 21 22 26 19 6 -4 5 3 -1 15 -7 11 -16 21 -22 21 -5 0 -4 6 3 14 11 12 14
11 20 -3 8 -20 10 1 2 23 -3 9 -11 13 -17 9 -6 -3 -7 -1 -3 5 5 9 13 9 26 2
13 -7 21 -7 26 2 4 6 3 8 -4 4 -6 -3 -13 -2 -17 4 -3 5 0 10 7 10 8 0 9 3 3 8
-12 8 -13 37 -2 48 11 11 9 26 -3 19 -14 -9 8 46 26 67 9 9 17 28 18 43 2 14
8 31 15 38 8 8 6 16 -7 31 -9 11 -11 16 -5 12 7 -4 21 -2 30 4 13 9 14 10 2 7
-11 -4 -15 1 -14 16 1 11 8 23 16 25 11 3 11 1 -1 -7 -8 -6 -10 -11 -4 -11 19
0 24 13 11 28 -10 13 -9 15 4 10 9 -3 22 -2 30 4 11 8 11 9 -3 4 -10 -3 -20
-1 -23 5 -4 5 -11 6 -17 3 -7 -4 -7 0 0 12 5 11 7 24 5 31 -2 6 1 14 6 18 7 3
8 0 5 -9 -3 -9 -1 -16 5 -16 6 0 11 7 11 16 0 8 4 13 8 10 4 -2 8 4 8 14 0 14
-3 16 -13 8 -9 -7 -13 -7 -13 1 0 6 7 14 15 17 8 4 15 11 15 18 0 6 9 17 19
23 13 8 18 19 14 33 -3 12 -1 20 5 18 5 -2 19 8 30 20 13 15 26 21 34 16 7 -4
4 2 -6 14 -11 12 -16 25 -13 29 4 3 7 2 7 -4 0 -5 16 -10 35 -10 27 0 35 4 35
19 0 12 7 18 21 18 11 0 18 4 15 8 -3 5 1 9 9 9 8 0 12 -4 9 -9 -5 -8 26 -4
64 8 6 2 12 0 12 -4 0 -4 8 -8 18 -9 9 0 44 -4 77 -8 44 -5 56 -4 45 4 -19 13
-5 14 19 1 10 -5 34 -11 52 -13 19 -2 44 -9 56 -15 29 -16 34 -15 27 3 -5 13
1 12 37 -3 24 -11 50 -17 57 -15 7 3 19 -1 28 -8 12 -10 18 -8 31 10 10 16 18
19 23 11 5 -7 21 1 50 25 47 39 62 39 36 0 l-16 -25 37 17 c21 10 56 29 78 44
68 44 68 44 56 21 -16 -31 -15 -31 42 -12 52 17 106 44 157 76 14 9 5 -2 -20
-25 -25 -22 -48 -41 -52 -41 -5 0 -8 -4 -8 -9 0 -4 24 -2 53 6 28 8 64 16 79
18 15 2 36 9 47 14 29 16 38 13 15 -5 -15 -13 -16 -15 -2 -10 9 3 34 10 55 16
21 6 61 22 88 35 59 28 55 26 55 21z m-2374 -533 c-17 -59 -25 -108 -30 -188
-4 -49 -9 -107 -12 -130 -5 -40 -5 -40 19 16 24 57 94 180 82 144 -4 -11 -16
-45 -27 -75 -23 -64 -38 -250 -16 -193 15 38 44 70 34 38 -3 -11 -10 -44 -16
-74 -21 -110 -5 -185 20 -96 17 62 25 49 9 -14 -14 -56 -19 -60 -41 -33 -21
24 -35 65 -52 150 -8 40 -20 80 -28 89 -9 12 -13 55 -13 158 0 140 0 142 29
183 30 43 51 56 42 25z m399 -288 c13 -66 18 -102 16 -114 -4 -21 21 -115 32
-122 5 -4 -2 -15 -17 -24 -14 -10 -26 -22 -26 -27 0 -5 -9 -23 -21 -39 -12
-17 -19 -39 -16 -50 7 -25 -31 -45 -108 -57 -45 -7 -58 -6 -62 4 -7 19 26 211
43 253 8 19 31 62 52 95 20 34 46 78 57 99 18 36 20 37 32 20 8 -10 16 -27 18
-38z m2898 -403 c11 -11 24 -42 28 -69 15 -89 9 -342 -10 -472 -18 -119 -22
-131 -94 -275 -41 -83 -77 -158 -80 -166 -12 -36 -70 -101 -106 -120 -53 -27
-121 -27 -121 -1 0 16 18 114 36 199 3 14 29 38 72 66 76 49 151 125 171 174
12 28 12 46 1 105 -14 79 -21 98 -56 140 -29 35 -40 87 -24 118 18 35 73 119
77 119 9 0 63 -130 78 -185 36 -141 -2 -295 -100 -404 -30 -33 -81 -151 -65
-151 3 0 17 19 30 43 13 23 37 58 53 77 46 53 88 152 104 248 17 104 28 351
18 427 l-6 55 -39 0 c-71 0 -123 -64 -180 -220 l-20 -55 5 45 c18 153 52 259
98 308 18 20 29 23 66 19 25 -3 52 -13 64 -25z m-3369 12 c10 -4 16 -18 16
-38 0 -17 11 -53 25 -81 37 -76 30 -85 -21 -27 -53 60 -77 76 -104 67 -33 -11
-43 -75 -36 -233 8 -161 18 -212 30 -147 7 39 58 204 78 255 10 24 11 24 19 5
15 -39 8 -76 -33 -177 -38 -92 -43 -112 -43 -183 0 -115 23 -174 131 -340 29
-46 124 -235 117 -235 -2 0 -21 17 -44 37 -26 23 -57 70 -86 127 -25 50 -63
122 -85 159 -122 210 -155 745 -51 806 20 12 63 14 87 5z m2742 -112 c117 -85
143 -163 110 -334 -48 -251 -223 -398 -473 -398 -107 0 -216 26 -276 66 -93
61 -173 164 -202 260 -22 75 -36 194 -26 234 l9 35 1 -33 1 -32 34 14 c19 8
69 44 112 80 44 36 83 66 88 66 5 0 -13 -17 -40 -39 -27 -21 -64 -59 -81 -84
l-33 -45 34 -4 c19 -2 58 -1 87 2 l54 5 -45 18 -44 19 24 19 c41 33 70 52 73
48 1 -2 10 -24 18 -49 23 -68 66 -93 148 -88 58 4 66 7 97 41 25 27 34 46 34
72 0 19 4 35 9 35 5 0 28 -17 51 -38 46 -41 46 -40 -5 -77 -19 -14 -18 -14 15
-9 l35 5 -35 -20 c-19 -11 -70 -27 -112 -37 -59 -13 -78 -21 -77 -33 0 -9 3
-11 5 -5 6 15 170 9 167 -6 -2 -5 4 -10 13 -10 8 0 12 -5 8 -11 -3 -6 -15 -9
-25 -6 -11 3 -19 0 -19 -5 0 -7 -42 -9 -120 -6 -79 3 -117 1 -110 -6 5 -5 62
-12 125 -14 110 -4 119 -2 170 23 33 16 67 43 86 68 18 23 59 68 91 99 55 54
71 89 47 104 -6 3 -8 16 -5 29 5 19 2 22 -19 17 -15 -2 -25 0 -25 7 0 6 -12
11 -27 11 -26 0 -26 1 -7 16 10 8 13 13 7 9 -7 -3 -13 -1 -13 4 0 19 26 12 66
-17z m-2274 -35 c-18 -21 -40 -196 -35 -277 5 -86 34 -169 83 -233 35 -45 116
-113 146 -123 11 -3 7 2 -7 10 -26 15 -46 56 -28 56 5 0 4 12 -1 26 -12 32
-13 74 -1 74 10 0 24 38 22 57 -1 7 14 23 34 35 19 13 35 28 35 35 0 9 13 8
46 -4 117 -40 409 25 432 96 4 11 -6 12 -54 5 -81 -11 -189 -6 -250 11 -55 16
-106 50 -103 68 1 7 -1 29 -5 49 -13 60 5 67 26 11 28 -77 60 -103 122 -103
110 0 149 26 162 108 4 23 8 42 10 42 11 0 74 -78 74 -92 0 -9 -12 -21 -27
-26 -22 -8 -6 -11 74 -11 94 -1 102 1 96 17 -6 15 -5 15 10 3 22 -18 22 -24
-8 -59 -27 -32 -32 -80 -19 -175 l7 -47 17 33 c9 17 23 49 30 70 6 21 14 36
16 34 11 -11 -44 -145 -78 -191 -52 -70 -142 -142 -208 -167 -67 -26 -219 -36
-304 -20 -81 15 -159 53 -223 107 -41 35 -63 66 -98 137 -56 113 -72 210 -55
319 12 78 14 83 43 116 22 23 37 31 19 9z m-165 -110 c8 -16 21 -73 29 -125
18 -115 38 -191 70 -254 28 -55 24 -63 -7 -15 l-21 32 6 -50 c10 -73 23 -142
39 -207 9 -32 18 -93 21 -135 4 -43 13 -107 22 -143 8 -36 17 -92 20 -125 3
-33 10 -67 15 -77 5 -9 9 -30 9 -47 0 -16 4 -32 9 -36 6 -3 10 -13 9 -23 0 -9
5 -31 10 -49 6 -17 8 -34 4 -37 -3 -3 -1 -6 5 -6 6 0 9 -9 6 -20 -3 -11 0 -26
6 -33 6 -8 8 -17 4 -20 -3 -4 -1 -7 6 -7 8 0 11 -8 8 -20 -3 -13 -1 -18 6 -13
6 4 8 0 4 -10 -4 -10 -2 -17 4 -17 6 0 8 -8 5 -17 -4 -10 -4 -14 0 -10 4 4 19
-20 34 -53 15 -33 30 -57 33 -53 4 3 8 1 8 -5 5 -42 37 -104 50 -96 8 5 10 2
6 -8 -3 -10 4 -24 19 -37 13 -11 24 -27 24 -35 0 -8 5 -18 12 -22 7 -5 8 -3 3
6 -5 8 -4 11 3 7 5 -4 8 -17 4 -29 -3 -12 -1 -19 5 -15 5 3 16 -3 24 -15 15
-22 47 -59 109 -128 22 -24 40 -50 40 -58 0 -7 4 -11 9 -8 5 3 8 -2 7 -12 0
-9 5 -16 12 -14 8 1 11 -2 8 -7 -15 -24 222 -215 314 -253 42 -17 43 -18 10
-13 -51 9 -185 77 -255 130 -129 97 -429 417 -544 578 -63 90 -119 211 -135
297 -24 123 -74 452 -97 640 -11 96 -30 218 -41 270 -20 95 -20 195 -2 388 5
53 9 61 21 50 8 -6 21 -25 30 -41z m1416 -4 c33 -17 31 -11 71 -168 18 -69 36
-122 40 -118 4 4 4 0 1 -9 -13 -32 110 -243 176 -303 40 -36 123 -79 142 -72
5 1 -10 9 -34 17 -70 23 -175 141 -233 260 -14 28 -14 31 -1 15 8 -11 32 -42
53 -68 107 -138 269 -204 472 -194 161 9 253 43 347 130 87 80 145 197 182
370 24 112 45 167 62 167 9 0 10 -49 6 -197 -3 -109 -8 -207 -11 -218 -2 -11
-5 -48 -5 -82 -1 -47 -5 -63 -15 -63 -8 0 -13 -9 -13 -22 2 -34 -26 -178 -34
-178 -4 0 -9 -9 -12 -20 -3 -11 -1 -18 4 -14 16 10 9 -8 -8 -23 -10 -8 -12
-12 -5 -8 6 3 12 2 12 -3 0 -6 -7 -13 -15 -16 -13 -4 -14 -10 -5 -26 6 -12 9
-29 7 -38 -3 -11 -5 -9 -7 8 l-2 25 -7 -25 c-4 -16 -14 -25 -26 -25 -11 0 -20
-6 -19 -12 2 -30 5 -34 14 -28 6 3 10 -1 10 -9 0 -8 9 -20 20 -26 17 -9 20 -8
20 11 0 12 2 20 5 17 3 -3 1 -45 -5 -94 -16 -132 -21 -155 -33 -147 -7 4 -8 0
-4 -12 6 -14 3 -16 -15 -11 -55 16 -69 16 -75 0 -3 -9 0 -20 8 -26 10 -6 7 -7
-10 -3 -18 5 -22 4 -16 -6 5 -7 9 -25 10 -40 l3 -27 -22 22 c-11 12 -18 17
-13 12 4 -6 7 -17 7 -25 0 -11 -3 -11 -13 3 -13 18 -14 18 -14 0 0 -11 4 -24
9 -31 10 -13 -6 -28 -21 -18 -12 7 -25 -31 -16 -45 3 -5 11 -10 17 -10 7 0 6
6 -2 15 -7 9 -8 15 -2 15 17 0 22 -28 6 -40 -8 -7 -14 -8 -14 -2 0 5 -9 12
-20 15 -25 7 -26 -8 -1 -25 12 -9 17 -19 12 -27 -6 -9 -10 -6 -15 11 -7 23 -7
23 -21 -7 -9 -16 -13 -22 -11 -13 3 10 1 20 -3 23 -13 8 -19 -42 -7 -57 7 -8
5 -8 -6 1 -14 10 -18 11 -18 1 0 -9 -9 -11 -30 -7 -24 5 -28 4 -23 -10 4 -9 2
-14 -3 -10 -6 3 -9 -9 -9 -29 1 -30 -1 -34 -19 -29 -17 5 -16 3 4 -9 21 -13
22 -15 6 -16 -12 0 -16 -5 -12 -16 3 -9 2 -12 -5 -9 -6 4 -13 -2 -16 -14 -4
-15 -9 -18 -22 -12 -9 5 -22 6 -29 4 -11 -4 -10 -9 2 -22 16 -18 14 -19 -46
-22 -9 0 -22 -6 -28 -14 -9 -11 -7 -12 8 -8 24 6 38 -13 23 -31 -6 -7 -7 -17
-3 -22 4 -5 -2 -1 -14 9 -18 15 -23 16 -33 3 -7 -9 -8 -17 -2 -20 5 -3 12 0
14 6 4 10 6 10 6 0 1 -7 -6 -15 -14 -18 -8 -4 -13 -9 -11 -13 3 -4 0 -13 -6
-21 -8 -12 -9 -12 -4 3 3 9 1 17 -4 17 -6 0 -10 -5 -10 -11 0 -5 -6 -7 -12 -3
-10 6 -10 4 0 -7 6 -7 12 -20 12 -28 0 -11 -4 -10 -15 5 -15 18 -15 18 -9 -8
7 -31 -3 -36 -20 -12 -10 13 -12 13 -12 -5 0 -11 5 -19 10 -18 6 1 11 -10 11
-25 1 -15 -3 -24 -7 -22 -7 5 -12 -10 -9 -29 1 -4 -8 -2 -19 5 -16 10 -22 10
-32 -1 -7 -8 -8 -11 -2 -8 7 4 17 0 24 -8 11 -13 10 -14 -5 -8 -15 5 -17 3
-11 -12 6 -18 6 -18 -12 -2 -16 14 -19 15 -19 2 0 -8 4 -15 8 -15 5 0 -3 -12
-16 -26 -14 -15 -22 -32 -18 -38 4 -6 -2 -4 -12 4 -10 8 -16 10 -12 4 4 -7 0
-15 -9 -18 -8 -3 -12 -10 -9 -16 3 -5 -3 -10 -15 -10 -12 0 -19 -4 -16 -8 3
-5 -1 -9 -9 -9 -8 0 -15 4 -15 9 0 4 5 8 11 8 5 0 7 5 3 11 -4 8 -11 3 -20
-12 -7 -13 -10 -28 -7 -32 3 -5 -4 -4 -16 2 -18 10 -22 9 -30 -12 -7 -18 -16
-24 -35 -22 -15 2 -24 -2 -23 -8 3 -14 -24 -16 -42 -3 -12 9 -13 8 -9 -4 4
-12 -1 -16 -22 -15 -22 0 -26 3 -17 13 8 10 7 12 -4 10 -8 -2 -20 -12 -27 -23
-9 -14 -12 -15 -8 -3 2 9 -1 19 -8 21 -8 3 -13 -1 -12 -11 1 -11 -7 -17 -21
-18 -12 -1 -20 3 -17 8 3 4 11 5 17 2 7 -4 9 -3 4 1 -11 13 -50 14 -65 2 -9
-7 -19 -4 -34 9 -12 11 -18 13 -14 7 8 -15 -10 -18 -19 -3 -3 6 -12 10 -18 10
-7 0 -6 -4 3 -10 13 -8 13 -11 1 -22 -10 -10 -12 -10 -7 0 9 15 -6 16 -21 1
-8 -8 -13 -7 -18 2 -5 8 -4 10 3 5 14 -9 15 4 2 24 -6 9 -10 11 -10 3 0 -7 -7
-10 -17 -6 -11 4 -14 3 -9 -5 4 -7 2 -12 -3 -12 -6 0 -11 5 -11 11 0 8 -6 7
-17 -2 -14 -12 -16 -12 -11 1 5 13 -1 15 -31 12 -24 -2 -32 0 -23 6 11 7 11
10 -3 15 -9 4 -13 3 -10 -3 3 -6 1 -10 -5 -10 -6 0 -8 -6 -4 -12 4 -8 3 -10
-2 -5 -5 5 -10 13 -10 18 -1 5 -2 13 -3 18 0 6 -15 18 -31 28 -17 10 -28 23
-26 29 5 13 -26 14 -35 1 -3 -5 -9 -1 -12 8 -4 9 -3 14 2 11 5 -3 11 1 15 9 3
8 2 14 -2 13 -14 -3 -42 14 -36 23 11 19 14 59 4 59 -5 0 -10 -5 -10 -11 0 -5
-4 -7 -10 -4 -15 9 -12 25 5 25 9 0 12 6 8 16 -5 13 -7 13 -14 2 -12 -18 -11
-5 1 27 9 23 8 25 -10 15 -16 -9 -18 -8 -14 5 4 8 10 15 16 15 5 0 6 5 3 10
-4 6 -11 8 -16 5 -5 -4 -9 -4 -9 -1 0 4 18 13 40 22 22 9 37 20 34 25 -3 5 2
6 10 3 8 -3 19 -3 25 0 12 8 160 17 316 20 135 3 171 13 202 60 20 32 39 116
26 116 -5 0 -44 -7 -88 -15 -44 -8 -98 -14 -120 -14 l-40 1 33 9 c17 5 32 11
32 12 0 1 -38 3 -84 4 -46 2 -96 7 -110 13 -18 6 -26 6 -26 -1 0 -5 -10 -3
-22 5 -12 9 -30 16 -39 16 -24 0 -76 46 -95 83 l-16 30 158 -7 c123 -5 177 -3
237 9 99 19 163 19 217 0 58 -21 127 -21 178 0 26 11 56 15 76 12 46 -7 58 2
43 33 -14 29 -66 41 -110 27 -41 -14 -89 -4 -202 38 -130 49 -177 54 -255 25
l-60 -23 -59 27 c-76 34 -99 33 -212 -8 -80 -28 -181 -57 -141 -40 6 3 12 10
12 16 0 5 7 16 15 24 8 9 15 12 15 8 0 -3 6 -1 13 5 8 6 18 7 22 3 5 -4 5 -2
2 4 -4 6 4 16 18 22 13 6 25 8 28 4 2 -4 2 -1 0 7 -2 8 2 11 12 7 9 -3 15 0
15 10 0 11 6 13 21 9 16 -5 19 -4 14 6 -6 9 -3 11 9 6 9 -4 14 -3 11 2 -3 5
-1 12 5 16 5 3 10 1 10 -6 0 -7 8 -5 22 7 12 10 18 13 14 7 -5 -9 -2 -11 8 -7
9 3 16 10 16 16 0 5 4 7 9 3 5 -3 12 -1 16 5 4 7 12 7 26 0 10 -6 19 -7 19 -3
0 4 11 8 25 8 14 0 25 -3 25 -7 0 -4 11 -3 25 2 14 5 25 7 25 3 0 -3 9 2 20
12 11 10 20 27 20 38 0 40 34 77 105 113 123 61 166 112 163 194 -1 39 -2 45
-5 20 -5 -39 -27 -62 -51 -53 -10 4 -34 17 -54 29 l-37 23 -55 -24 c-84 -37
-145 -42 -200 -15 -27 13 -54 36 -67 57 l-22 36 19 161 c20 169 22 269 12 452
-7 127 -1 147 52 176 39 20 102 17 153 -9z m-392 -470 c-17 -32 -104 -110
-164 -147 -79 -51 -177 -65 -318 -47 -96 12 -219 47 -241 69 -6 6 20 -1 57
-14 218 -79 488 -30 630 115 43 45 51 50 36 24z m-59 -218 c-5 -23 -10 -82
-11 -131 -1 -49 -6 -109 -11 -134 -4 -25 -7 -75 -6 -112 2 -51 -1 -68 -11 -68
-7 0 -13 -6 -13 -14 0 -8 -6 -17 -12 -19 -8 -4 -7 -6 4 -6 9 -1 18 5 21 12 2
6 3 3 1 -7 -2 -11 2 -27 9 -35 6 -9 2 -8 -11 3 -20 18 -27 15 -23 -8 1 -5 -4
-5 -11 1 -9 8 -16 7 -25 -2 -15 -16 -6 -26 15 -18 10 4 14 3 11 -1 -11 -12
-57 -17 -64 -6 -3 5 -14 10 -23 10 -13 0 -14 -2 -4 -9 11 -7 11 -9 -1 -14 -17
-6 -17 9 1 38 10 17 13 18 22 5 7 -11 10 -11 10 -2 0 8 5 10 13 6 7 -4 9 -3 4
2 -5 5 -12 8 -15 7 -4 -1 -13 3 -19 9 -9 7 -13 7 -13 -1 0 -7 -5 -9 -12 -5 -6
4 -8 3 -5 -3 7 -12 -7 -26 -36 -36 -15 -6 -16 -4 -7 13 13 24 6 40 -18 40 -13
0 -13 -2 4 -15 10 -8 14 -15 8 -15 -15 0 -46 35 -37 43 3 4 -6 7 -20 7 -15 0
-27 5 -27 11 0 5 -4 7 -10 4 -5 -3 -10 -2 -10 2 0 5 -10 14 -22 19 -13 6 -17
9 -9 7 11 -3 11 0 3 10 -7 8 -9 17 -5 21 4 4 0 4 -10 0 -16 -6 -22 4 -18 29 0
4 -4 6 -10 5 -6 -2 -14 3 -17 11 -3 9 0 11 8 6 9 -5 11 -4 6 3 -4 7 -14 12
-22 12 -8 0 -13 4 -10 8 3 5 -5 17 -17 27 -14 12 -17 20 -9 23 17 5 15 22 -4
22 -8 0 -12 5 -9 10 3 6 1 10 -5 10 -7 0 -9 8 -5 20 5 16 3 19 -11 13 -13 -5
-15 -3 -9 7 5 8 10 25 11 38 l3 24 -19 -22 c-18 -21 -18 -21 -15 15 3 32 2 35
-12 24 -13 -11 -13 -8 1 25 13 31 14 42 4 54 -11 13 -11 14 1 7 21 -12 165 -6
266 11 96 17 217 67 250 105 l20 21 3 -37 c2 -20 -1 -56 -6 -80z m-714 -1027
c30 -52 30 -55 30 -203 0 -137 -19 -405 -33 -464 -16 -67 -25 27 -31 357 -4
199 -5 362 -1 362 3 0 19 -24 35 -52z m2175 -158 c-3 -25 -7 -108 -9 -185 -2
-77 -6 -209 -9 -294 -6 -210 -16 -271 -60 -366 -64 -137 -142 -246 -426 -594
-32 -39 -67 -68 -119 -96 -135 -74 -187 -136 -225 -270 -10 -33 -26 -72 -36
-87 -11 -14 -19 -32 -19 -39 0 -7 -3 -10 -6 -6 -7 7 -96 -109 -120 -156 -9
-18 -20 -34 -23 -37 -4 -3 -15 -24 -26 -48 -10 -24 -28 -51 -40 -60 -12 -10
-20 -24 -17 -32 6 -21 -8 -6 -101 111 l-77 96 0 79 c0 144 -34 252 -107 342
-35 43 -42 70 -9 33 16 -18 56 -19 56 -2 0 8 2 9 73 17 26 3 47 10 47 15 0 5
28 6 61 2 l62 -6 -7 31 c-3 18 -9 46 -12 62 -4 17 -10 30 -14 30 -9 0 -8 33 1
40 13 10 20 50 10 50 -6 0 -2 16 9 36 11 19 18 39 15 45 -4 5 -2 9 2 9 5 0 26
24 48 53 21 28 121 134 220 234 100 100 190 194 201 209 10 15 29 39 41 54 12
15 20 30 18 34 -3 3 -2 4 1 1 8 -5 13 1 92 98 35 43 60 83 56 89 -4 7 -3 8 4
4 7 -4 12 -2 12 4 0 6 7 18 15 26 8 8 12 20 9 28 -6 16 21 40 36 31 5 -3 10 1
10 9 0 9 5 16 11 16 5 0 8 4 5 9 -3 5 4 18 17 29 12 12 33 31 48 44 69 63 249
345 249 391 0 9 6 17 13 18 9 0 9 2 -1 6 -10 4 -10 8 0 21 11 13 14 8 20 -34
3 -27 4 -69 1 -94z m-2297 -194 c-53 -88 -59 -134 -35 -260 11 -59 17 -111 14
-116 -3 -6 -2 -10 3 -10 5 0 15 -19 22 -42 24 -84 90 -231 144 -322 60 -102
263 -362 345 -441 53 -51 66 -74 32 -55 -50 26 -129 3 -177 -52 -53 -61 -133
-189 -219 -353 -104 -198 -134 -243 -222 -332 l-87 -87 -18 90 c-42 206 -68
389 -78 539 -6 88 -17 187 -25 220 -40 172 -49 243 -49 400 l0 160 42 91 c23
51 42 94 42 98 0 3 16 38 35 77 19 40 35 82 35 94 0 12 13 39 29 59 17 21 37
61 47 89 9 29 28 72 42 96 29 52 105 137 109 124 2 -5 -12 -36 -31 -67z m2463
-46 c17 -32 43 -89 57 -127 14 -37 43 -99 64 -138 57 -105 149 -325 160 -385
19 -98 12 -312 -15 -480 -14 -85 -47 -312 -75 -505 -28 -192 -53 -358 -56
-367 -8 -26 -35 -22 -77 13 -40 33 -89 101 -153 213 -21 38 -46 80 -56 95 -9
14 -27 46 -40 71 -69 129 -124 231 -155 282 -38 64 -115 137 -147 140 -38 2
-71 -3 -100 -18 -46 -22 -44 -18 15 44 246 255 445 589 519 868 42 158 41 230
-5 320 -19 38 -35 76 -35 83 0 26 67 -48 99 -109z m-2880 -673 c-26 -23 -83
-75 -128 -116 -70 -63 -82 -77 -76 -98 4 -17 1 -25 -12 -30 -19 -7 -61 -43
-51 -43 3 0 22 7 41 15 44 18 216 45 222 34 3 -4 -25 -12 -63 -18 -133 -23
-140 -27 -408 -213 -44 -31 -100 -66 -125 -77 -85 -40 -365 -154 -429 -176
-310 -106 -611 -229 -834 -341 -82 -40 -154 -74 -161 -74 -6 0 -23 19 -38 42
-22 34 -25 45 -15 54 51 49 332 200 754 404 270 131 501 241 515 245 13 4 83
39 154 78 72 38 195 103 275 144 126 65 140 70 109 41 -49 -45 -176 -137 -338
-243 -74 -49 -129 -91 -123 -93 7 -2 12 -8 12 -13 0 -5 -9 -4 -19 3 -15 9 -23
9 -36 -2 -13 -11 -13 -15 -3 -23 9 -6 7 -7 -6 -3 -13 4 -40 -7 -82 -35 -60
-39 -81 -57 -51 -46 22 8 14 -47 -8 -60 -33 -20 -10 -15 67 16 40 15 98 36
128 46 105 34 207 96 177 108 -9 3 -12 16 -9 36 2 17 8 28 13 25 5 -3 9 1 9 9
0 16 76 87 85 79 3 -3 5 2 5 10 0 18 24 30 44 22 19 -7 41 33 28 49 -7 8 -2
18 16 31 25 19 25 19 18 1 -7 -18 -6 -18 15 1 12 10 41 37 63 59 87 85 252
195 290 195 17 0 13 -8 -25 -43z m1071 -639 c140 -70 177 -100 217 -175 42
-79 80 -273 58 -295 -3 -3 -29 -2 -58 3 -28 4 -74 10 -100 14 -27 4 -47 9 -44
11 2 3 40 6 83 7 44 1 84 6 91 10 9 5 7 26 -8 80 -45 162 -92 221 -231 294
-102 52 -138 78 -138 100 0 8 3 13 8 11 4 -1 59 -29 122 -60z m1201 18 c-19
-19 -79 -59 -133 -87 -77 -41 -106 -61 -124 -91 -13 -21 -24 -39 -24 -41 0 -2
18 13 39 34 34 32 219 149 235 149 3 0 6 -24 6 -52 l-1 -53 -92 -30 c-78 -26
-92 -34 -95 -53 -3 -19 0 -23 15 -19 93 27 136 44 153 59 19 18 20 18 38 0 13
-13 17 -29 14 -54 -3 -28 -11 -39 -40 -56 -21 -11 -46 -29 -57 -39 -42 -39
-82 -62 -145 -81 -49 -16 -55 -20 -25 -15 47 6 175 55 223 85 35 22 48 19 38
-7 -8 -22 -157 -89 -262 -120 -46 -13 -93 -29 -103 -35 -11 -5 -22 -10 -25
-10 -11 0 -6 116 10 204 26 152 75 210 248 295 125 62 155 66 107 17z m-1021
-261 c33 -67 61 -151 52 -159 -10 -11 -128 -6 -139 5 -9 9 -6 19 9 40 12 16
23 49 26 78 4 44 1 57 -24 94 -48 70 -47 81 2 40 28 -24 56 -61 74 -98z m-134
58 c-2 -3 5 -14 16 -25 16 -16 19 -28 14 -57 -6 -41 -28 -61 -67 -61 -41 0
-61 25 -54 68 5 29 4 34 -5 22 -8 -12 -9 -8 -4 15 9 40 14 47 28 42 6 -3 20 1
31 9 14 10 22 11 32 2 7 -6 11 -13 9 -15z m-275 -380 c-39 -100 -55 -117 -81
-83 -11 14 -25 36 -32 50 -6 14 -23 37 -36 52 -20 22 -24 34 -19 64 4 21 11
42 17 48 7 7 8 1 4 -22 -10 -47 12 -90 57 -111 37 -18 38 -18 59 4 31 33 40
78 42 215 l1 125 10 -130 9 -130 -31 -82z m1542 183 c-5 -52 -2 -68 21 -111
15 -27 33 -57 42 -66 19 -21 49 -14 69 14 8 12 15 19 15 15 0 -16 -41 -96 -63
-123 l-25 -29 -21 34 c-57 94 -71 166 -56 288 10 79 24 62 18 -22z m-1030
-145 c72 -66 256 -341 229 -341 -4 0 -13 15 -20 33 -13 35 -89 134 -177 229
-54 58 -61 62 -114 69 -32 5 -77 17 -102 28 l-44 21 100 -6 c90 -6 103 -9 128
-33z m-3334 -736 c0 -5 -3 -4 -8 4 -7 11 -15 12 -32 5 -15 -7 -19 -13 -11 -18
7 -4 12 -2 12 3 0 6 5 11 11 11 6 0 9 -6 6 -14 -4 -9 0 -12 12 -9 14 4 21 -5
29 -39 7 -27 8 -44 2 -46 -14 -5 -12 -23 1 -19 11 2 44 -91 35 -100 -11 -12
-26 10 -20 30 6 22 6 22 -10 2 -8 -11 -16 -15 -16 -8 0 6 5 15 10 18 6 3 10
16 10 28 0 19 -3 17 -21 -12 -11 -18 -19 -34 -17 -36 2 -1 13 -8 26 -14 25
-13 30 -41 7 -41 -8 0 -15 -4 -15 -10 0 -13 17 -13 25 0 4 6 11 8 16 5 5 -3 6
1 3 9 -3 9 -2 16 4 16 5 0 12 -10 15 -22 2 -13 12 -50 21 -82 12 -45 13 -63 4
-73 -6 -7 -8 -17 -4 -20 4 -4 11 -2 15 6 7 10 10 9 14 -3 4 -11 1 -16 -10 -16
-9 0 -22 -8 -29 -17 -13 -17 -14 -17 -8 0 7 21 -14 50 -32 43 -12 -5 -29 22
-19 32 3 3 5 0 5 -6 0 -7 4 -12 10 -12 5 0 7 7 3 16 -3 9 -2 19 3 23 34 24 38
92 5 90 -11 0 -12 -2 -3 -6 10 -4 8 -8 -5 -18 -10 -7 -14 -17 -10 -21 4 -5 12
-2 17 6 6 8 10 11 10 5 0 -5 -12 -23 -26 -40 -19 -22 -22 -24 -14 -7 6 12 8
28 4 34 -5 8 -10 5 -16 -8 -8 -17 -8 -17 -4 3 2 12 1 23 -3 25 -19 7 -81 137
-74 153 5 14 3 16 -7 10 -9 -5 -11 -4 -6 3 4 6 2 21 -5 33 -8 15 -8 19 0 15 6
-4 11 -1 11 8 0 8 -4 18 -10 21 -5 3 -10 1 -10 -6 0 -7 -2 -10 -5 -7 -3 3 -3
13 1 22 6 16 8 16 25 0 13 -12 16 -21 9 -34 -6 -12 -5 -23 6 -36 15 -18 15
-18 5 1 -6 13 -6 27 1 38 8 14 4 23 -17 43 -14 13 -20 24 -13 24 7 0 22 -12
35 -26 19 -22 20 -30 11 -48 -10 -19 -10 -20 5 -7 14 11 17 11 17 1 0 -8 3
-11 6 -7 3 3 1 14 -4 24 -8 13 -6 23 6 37 16 18 16 18 -4 8 -18 -9 -25 -7 -43
12 l-22 23 31 13 c16 7 30 18 31 24 0 12 17 -23 18 -39z"/>
<path d="M3836 4044 c-15 -39 -1 -237 21 -294 3 -8 7 -27 8 -41 2 -22 -2 -26
-20 -26 -17 0 -22 4 -18 15 5 10 2 13 -6 8 -8 -5 -11 -3 -10 5 1 8 -3 25 -10
39 -11 24 -11 24 -7 2 4 -23 4 -23 -14 -7 -14 12 -20 13 -26 4 -4 -8 -3 -10 4
-5 7 4 12 3 12 -3 0 -21 -19 -20 -26 1 l-8 23 -7 -25 -7 -25 -7 22 c-7 23 -27
23 -21 0 1 -7 1 -9 -1 -4 -3 4 -13 7 -23 7 -21 0 -30 -36 -30 -129 0 -36 -5
-84 -12 -106 l-12 -40 -8 40 c-4 22 -12 72 -17 110 -8 60 -9 48 -6 -80 2 -97
11 -187 24 -255 12 -58 26 -148 32 -200 5 -52 14 -124 19 -160 13 -104 70
-423 75 -429 8 -7 20 8 44 54 12 22 21 35 21 30 0 -5 7 0 15 12 9 12 14 26 13
30 -1 4 8 26 20 48 14 24 21 31 18 18 -2 -13 -3 -23 -2 -23 2 0 27 47 56 105
36 72 56 101 62 93 5 -8 6 -1 2 16 -5 20 -3 27 4 22 6 -3 14 4 18 16 3 13 15
35 25 50 22 30 16 66 -7 47 -12 -10 -13 -8 -7 7 12 32 72 131 100 166 l27 33
-28 -25 c-36 -31 -78 -96 -146 -225 -54 -103 -78 -138 -66 -98 9 29 -10 39
-19 10 -4 -12 -7 -25 -6 -29 1 -5 -3 -8 -9 -8 -5 0 -7 -8 -3 -17 3 -10 3 -15
-1 -11 -10 9 -15 42 -6 48 4 3 19 31 33 64 21 46 30 56 40 48 10 -9 18 -4 32
20 13 22 15 33 7 36 -7 2 -12 13 -12 25 1 20 2 21 14 5 14 -19 26 -23 26 -10
0 5 -18 20 -40 35 -22 14 -40 22 -40 17 0 -5 8 -13 17 -19 10 -5 14 -13 10
-17 -8 -8 -38 26 -34 39 1 5 5 7 8 5 3 -2 14 4 25 12 17 14 18 14 6 -1 -10
-14 -10 -18 4 -23 9 -4 19 -4 22 -1 3 3 0 5 -7 5 -6 0 -11 6 -9 13 5 27 -12
66 -27 61 -11 -5 -13 -2 -8 12 6 17 5 17 -10 5 -13 -10 -15 -17 -6 -27 9 -11
8 -14 0 -14 -7 0 -9 -5 -5 -12 5 -9 2 -9 -9 1 -19 15 -23 26 -6 15 7 -4 10 -1
7 7 -3 8 1 21 9 31 20 23 25 71 6 64 -8 -4 -11 -1 -8 5 4 6 13 8 21 5 14 -6
38 27 27 38 -3 3 -2 6 4 6 6 0 14 7 17 16 6 15 -4 13 -32 -9 -10 -8 -10 -12
-1 -17 8 -6 8 -9 0 -14 -6 -4 -11 -2 -11 3 0 16 -16 13 -34 -5 -9 -8 -16 -12
-16 -7 0 5 9 16 20 26 11 9 20 14 20 10 0 -10 29 31 30 41 0 6 -6 1 -14 -10
-8 -10 -18 -15 -22 -11 -5 4 -2 12 5 16 7 5 10 14 7 20 -4 6 0 11 11 12 16 0
16 1 -2 9 -19 7 -19 8 -2 15 11 5 16 14 12 25 -3 10 -1 21 4 24 6 4 8 13 4 21
-3 11 -1 13 10 10 11 -5 14 1 11 26 -2 18 -8 37 -13 42 -11 11 -3 37 10 37 4
0 6 -8 3 -17 -5 -17 -5 -17 6 0 11 16 12 16 30 -5 17 -20 16 -14 -5 39 -14 35
-25 71 -25 82 0 26 -17 36 -24 14 -3 -10 -4 -6 -2 9 2 16 -1 25 -8 22 -11 -4
-30 58 -67 229 -21 95 -31 113 -43 81z"/>
<path d="M8542 2173 c-6 -10 -22 -56 -37 -103 -15 -47 -40 -121 -55 -165 -75
-214 -111 -329 -133 -425 -14 -58 -31 -118 -38 -135 -7 -16 -14 -39 -15 -50
-8 -73 -16 -123 -21 -145 -4 -14 -7 -29 -8 -35 0 -5 -4 -15 -8 -22 -4 -6 -3
-14 3 -18 15 -9 12 -90 -4 -130 -13 -29 -12 -34 1 -39 8 -3 16 -6 17 -6 2 0 6
28 10 63 21 215 102 595 172 818 14 45 27 89 29 98 2 9 16 50 30 91 14 41 28
82 30 90 1 8 12 41 23 73 20 56 22 74 4 40z"/>
<path d="M5100 2051 c0 -6 -24 -34 -54 -63 -30 -29 -58 -66 -61 -81 -12 -45 4
-98 40 -134 47 -47 85 -45 136 6 35 35 39 44 39 90 0 61 -20 111 -70 173 -16
19 -30 24 -30 9z m55 -112 c36 -69 1 -159 -61 -159 -31 0 -64 47 -64 90 0 51
12 75 47 93 35 19 61 11 78 -24z"/>
<path d="M8223 1483 c-3 -10 -12 -33 -19 -52 -17 -40 -17 -44 -4 -36 6 3 10
-4 10 -15 0 -16 -4 -20 -16 -16 -13 5 -15 1 -12 -19 3 -13 1 -22 -4 -19 -4 3
-8 -7 -7 -23 1 -15 -4 -41 -10 -58 -18 -42 -41 -180 -41 -240 0 -36 -3 -46
-10 -35 -7 11 -10 5 -10 -24 0 -31 3 -37 16 -32 9 3 20 6 24 6 5 0 9 17 10 38
1 62 5 90 11 86 4 -2 12 24 19 59 17 89 30 124 24 67 -4 -39 -3 -42 6 -20 7
14 8 45 5 72 -4 27 -3 48 2 48 5 0 9 24 10 53 1 28 5 68 8 87 6 33 6 34 -9 15
-15 -19 -15 -18 -7 10 5 17 12 38 16 48 4 9 4 17 1 17 -4 0 -9 -8 -13 -17z"/>
</g>
</svg>
