<?xml version="1.0" encoding="UTF-8" standalone="no"?>
<!-- Created with Inkscape (http://www.inkscape.org/) -->

<svg
   width="69"
   height="120"
   viewBox="0 0 18.25625 31.750001"
   version="1.1"
   id="svg1110"
   inkscape:version="1.1.1 (3bf5ae0d25, 2021-09-20)"
   sodipodi:docname="rocket.svg"
   xmlns:inkscape="http://www.inkscape.org/namespaces/inkscape"
   xmlns:sodipodi="http://sodipodi.sourceforge.net/DTD/sodipodi-0.dtd"
   xmlns="http://www.w3.org/2000/svg"
   xmlns:svg="http://www.w3.org/2000/svg">
  <sodipodi:namedview
     id="namedview1112"
     pagecolor="#ffffff"
     bordercolor="#666666"
     borderopacity="1.0"
     inkscape:pageshadow="2"
     inkscape:pageopacity="0.0"
     inkscape:pagecheckerboard="0"
     inkscape:document-units="px"
     showgrid="false"
     units="px"
     inkscape:zoom="3.8333333"
     inkscape:cx="35.086957"
     inkscape:cy="60"
     inkscape:window-width="1366"
     inkscape:window-height="713"
     inkscape:window-x="0"
     inkscape:window-y="0"
     inkscape:window-maximized="1"
     inkscape:current-layer="layer1" />
  <defs
     id="defs1107" />
  <g
     inkscape:label="Camada 1"
     inkscape:groupmode="layer"
     id="layer1">
    <g
       id="g1078"
       transform="matrix(0.02984805,0,0,0.02984805,-26.759678,-7.6650673)">
      <g
         id="g38">
        <g
           id="g18">
          <path
             fill="#ea395a"
             d="m 1089.125,991.802 c 0,0 -191.926,100.754 -191.926,319.068 0,0 11.999,23.994 31.191,-4.801 19.19,-28.788 35.986,-107.953 158.334,-107.953 z"
             id="path14" />
          <path
             fill="#bc3749"
             d="m 1315.576,991.802 c 0,0 191.925,100.754 191.925,319.068 0,0 -11.998,23.994 -31.188,-4.801 -19.197,-28.788 -35.983,-107.953 -158.336,-107.953 z"
             id="path16" />
        </g>
        <g
           id="g36">
          <path
             fill="#1c3f57"
             d="m 1415.438,779.672 c 0,-89.383 -15.098,-173.531 -37.59,-247.109 h -175.497 v 74.672 c 64.926,0 117.563,52.636 117.563,117.559 0,64.923 -52.639,117.56 -117.563,117.56 v 377.814 h 114.852 c 59.08,-92.944 98.235,-255.501 98.235,-440.496 z"
             id="path20" />
          <path
             fill="#325e78"
             d="m 1084.791,724.794 c 0,-64.923 52.635,-117.559 117.558,-117.559 v -74.672 h -175.493 c -22.49,73.579 -37.592,157.726 -37.592,247.109 0,184.995 39.155,347.552 98.237,440.496 H 1202.35 V 842.354 c -64.924,0 -117.559,-52.636 -117.559,-117.56 z"
             id="path22" />
          <path
             fill="#e7c634"
             d="m 1089.141,1220.526 c -2.972,0 -5.38,2.406 -5.38,5.376 v 25.067 c 0,2.965 2.408,5.364 5.38,5.364 h 113.207 v -35.808 h -113.207 z"
             id="path24" />
          <path
             fill="#ceae2d"
             d="m 1315.461,1220.526 h -113.11 v 35.808 h 113.11 c 2.965,0 5.37,-2.399 5.37,-5.364 v -25.067 c 0,-2.971 -2.405,-5.377 -5.37,-5.377 z"
             id="path26" />
          <path
             fill="#ceae2d"
             d="m 1282.899,724.794 c 0,44.486 -36.063,80.551 -80.552,80.551 v 37.009 c 64.927,0 117.563,-52.636 117.563,-117.56 0,-64.924 -52.639,-117.559 -117.563,-117.559 v 37.016 c 44.49,0 80.552,36.057 80.552,80.543 z"
             id="path28" />
          <path
             fill="#e7c634"
             d="m 1084.791,724.794 c 0,64.923 52.635,117.56 117.558,117.56 v -37.009 c -44.48,0 -80.547,-36.064 -80.547,-80.551 0,-44.487 36.067,-80.545 80.547,-80.545 v -37.014 c -64.923,0 -117.558,52.636 -117.558,117.559 z"
             id="path30" />
          <path
             fill="#84d0d1"
             d="m 1282.899,724.794 c 0,-44.485 -36.063,-80.543 -80.552,-80.543 v 161.094 c 44.49,0 80.552,-36.064 80.552,-80.551 z"
             id="path32" />
          <path
             fill="#a7dde3"
             d="m 1121.8,724.794 c 0,44.486 36.067,80.551 80.548,80.551 V 644.251 c -44.481,0 -80.548,36.057 -80.548,80.543 z"
             id="path34" />
        </g>
      </g>
      <g
         id="g48">
        <path
           fill="#bc3749"
           d="m 1202.348,256.803 v 275.762 h 175.498 C 1327.664,368.413 1240.679,256.803 1202.348,256.803 Z"
           id="path40" />
        <path
           fill="#ea395a"
           d="m 1202.348,256.803 c -38.325,0 -125.313,111.609 -175.494,275.762 h 175.494 z"
           id="path42" />
        <path
           fill="#bc3749"
           d="m 1209.745,1051.539 c -0.586,-0.188 -1.21,-0.293 -1.852,-0.293 h -0.163 -5.382 v 269.277 h 6.053 0.161 c 3.38,0 6.119,-2.739 6.119,-6.118 v -8.174 l 0.235,-11.813 16.986,-216.535 c 0,-21.949 -18.421,-25.401 -22.157,-26.344 z"
           id="path44" />
        <path
           fill="#ea395a"
           d="m 1196.3,1051.246 h -0.162 c -0.643,0 -1.265,0.104 -1.844,0.293 -1.078,0.269 -2.28,0.74 -3.452,1.431 -6.697,2.173 -18.044,7.999 -18.044,25.234 l 17.004,216.74 0.216,10.968 v 8.174 c 0,2.571 1.589,4.765 3.828,5.668 0.875,0.493 1.889,0.77 2.965,0.77 h 0.157 5.381 v -269.278 z"
           id="path46" />
      </g>
    </g>
  </g>
</svg>
